<svg xmlns="http://www.w3.org/2000/svg" shape-rendering="geometricPrecision" text-rendering="geometricPrecision" image-rendering="optimizeQuality" fill-rule="evenodd" clip-rule="evenodd" viewBox="0 0 512 414.888"><g fill-rule="nonzero"><path fill="#FFCB00" d="M80.056 0h351.888c21.907 0 41.859 9.115 56.362 23.618C502.912 38.224 512 58.366 512 80.229v254.43c0 21.815-9.169 41.902-23.754 56.492-14.579 14.579-34.596 23.737-56.302 23.737H80.056c-21.75 0-41.826-9.076-56.427-23.677C9.115 376.702 0 356.685 0 334.659V80.229c0-22.07 9.028-42.135 23.569-56.676C38.089 9.028 58.094 0 80.056 0z"/><path fill="#262626" d="M431.944 33.341H80.056c-12.999 0-24.781 5.285-33.282 13.786-8.495 8.495-13.77 20.218-13.77 33.102v254.43c0 12.809 5.334 24.487 13.83 32.977 8.572 8.572 20.397 13.911 33.222 13.911h351.888c12.749 0 24.52-5.394 33.097-13.971 8.566-8.571 13.955-20.282 13.955-32.917V80.229c0-12.71-5.329-24.47-13.895-33.037-8.507-8.506-20.239-13.851-33.157-13.851z"/><path fill="#FD5" d="M206.113 180.665c-.396-4.671-2.14-8.322-5.231-10.924-3.128-2.629-7.832-3.943-14.144-3.943-4.014 0-7.273.494-9.837 1.445-2.537.956-4.444 2.27-5.628 3.883-1.216 1.646-1.841 3.52-1.906 5.622-.098 1.712.228 3.26.956 4.639.722 1.385 1.874 2.635 3.449 3.721 1.613 1.114 3.623 2.102 6.122 2.993 2.466.885 5.394 1.679 8.816 2.368l11.776 2.532c7.958 1.678 14.737 3.916 20.397 6.643 5.654 2.765 10.293 6.024 13.878 9.739 3.585 3.683 6.252 7.86 7.963 12.499 1.711 4.606 2.564 9.674 2.629 15.133-.065 9.441-2.4 17.437-7.104 23.982-4.672 6.546-11.315 11.51-20.001 14.932-8.653 3.39-19.077 5.101-31.217 5.101-12.466 0-23.357-1.841-32.634-5.53-9.273-3.683-16.481-9.375-21.576-17.072-5.133-7.697-7.697-17.529-7.762-29.539h37.007c.261 4.378 1.347 8.094 3.319 11.087 1.939 2.96 4.704 5.23 8.289 6.779 3.585 1.542 7.833 2.33 12.798 2.33 4.144 0 7.631-.522 10.429-1.543 2.83-1.054 4.932-2.466 6.383-4.274 1.444-1.848 2.199-3.917 2.232-6.253-.033-2.205-.755-4.112-2.135-5.79-1.347-1.646-3.617-3.156-6.746-4.476-3.123-1.347-7.366-2.596-12.695-3.748l-14.28-3.091c-12.727-2.765-22.727-7.371-30.033-13.851-7.333-6.448-10.95-15.296-10.918-26.513-.032-9.11 2.401-17.105 7.333-23.949 4.938-6.839 11.776-12.168 20.527-16.019 8.784-3.813 18.816-5.725 30.169-5.725 11.608 0 21.608 1.945 30.098 5.823 8.452 3.851 14.965 9.31 19.571 16.35 4.606 7.04 6.942 15.231 6.975 24.639h-37.269zm109.312 98.686h-55.232V135.798h54.672c14.77 0 27.535 2.856 38.322 8.582 10.755 5.725 19.083 13.949 24.933 24.671 5.855 10.723 8.821 23.586 8.821 38.523 0 14.965-2.927 27.795-8.783 38.518-5.823 10.728-14.112 18.952-24.808 24.672-10.69 5.725-23.351 8.587-37.925 8.587zm-16.252-33.09h14.867c7.11 0 13.161-1.12 18.191-3.423 5.003-2.303 8.849-6.252 11.483-11.841 2.629-5.628 3.949-13.422 3.949-23.423 0-10-1.32-17.794-4.014-23.389-2.7-5.628-6.611-9.571-11.776-11.874-5.166-2.271-11.483-3.423-18.947-3.423h-13.753v77.373z"/></g></svg>
