<svg width="48" height="48" viewBox="0 0 48 48" fill="none" xmlns="http://www.w3.org/2000/svg">
  <!-- Drop shadows -->
  <defs>
    <filter id="shadow" x="-20%" y="-20%" width="140%" height="140%">
      <feDropShadow dx="1" dy="2" stdDeviation="2" flood-opacity="0.3"/>
    </filter>
  </defs>
  
  <!-- Bitcoin (main coin) -->
  <circle cx="24" cy="24" r="18" fill="#F7931A" filter="url(#shadow)"/>
  <circle cx="24" cy="24" r="18" fill="none" stroke="#E6870E" stroke-width="0.5"/>
  <path d="M30.4 22.2c.3-2.2-1.3-3.4-3.6-4.2l.7-3-1.8-.4-.7 2.9c-.5-.1-1-.2-1.5-.3l.7-3-1.8-.4-.7 3c-.4-.1-.8-.2-1.2-.2v0l-2.5-.6-.5 1.9s1.3.3 1.3.3c.7.2.8.6.8 1l-.8 3.4c.1 0 .2 0 .2.1l-.2-.1-1.2 4.7c-.1.2-.3.6-.8.4 0 0-1.3-.3-1.3-.3l-.9 2.1 2.3.6c.4.1.8.2 1.2.2l-.7 3.1 1.8.4.7-3c.5.1 1 .3 1.5.3l-.7 3 1.8.4.7-3.1c3.1.6 5.5.3 6.5-2.5.8-2.2-.1-3.5-1.6-4.4 1.2-.3 2.1-1.1 2.3-2.6zm-4.1 5.8c-.6 2.3-4.4 1.1-5.7.8l1-4.1c1.3.3 5.3.9 4.7 3.3zm.6-5.9c-.5 2.1-3.6 1-4.6.7l.9-3.6c1 .2 4.3.7 3.7 2.9z" fill="white"/>
  
  <!-- Ethereum (overlapping) -->
  <circle cx="35" cy="17" r="10" fill="#627EEA" filter="url(#shadow)"/>
  <circle cx="35" cy="17" r="10" fill="none" stroke="#4F67D0" stroke-width="0.5"/>
  <path d="M35 14l-3 5.5 3 2 3-2L35 14z" fill="white"/>
  <path d="M32 19.5l3 2v-4l-3 2z" fill="white" fill-opacity="0.8"/>
  <path d="M38 19.5l-3 2v-4l3 2z" fill="white" fill-opacity="0.6"/>
  
  <!-- USDT (overlapping) -->
  <circle cx="13" cy="31" r="10" fill="#26A17B" filter="url(#shadow)"/>
  <circle cx="13" cy="31" r="10" fill="none" stroke="#1E8A63" stroke-width="0.5"/>
  <path d="M13 26.5h-3.5v2h3v8h1v-8h3v-2H13zm-2.5 3h5v1h-5v-1zm0 3h5v1h-5v-1z" fill="white"/>
  
  <!-- Litecoin (small accent) -->
  <circle cx="37" cy="35" r="6" fill="#BFBBBB" filter="url(#shadow)"/>
  <circle cx="37" cy="35" r="6" fill="none" stroke="#A6A6A6" stroke-width="0.3"/>
  <path d="M35 32v6h4v-1h-3v-2l1.5-.5v-1L35 34v-2h-1z" fill="white"/>
</svg>
